<?xml version="1.0" encoding="UTF-8" standalone="no"?>
<!DOCTYPE svg PUBLIC "-//W3C//DTD SVG 1.1//EN"
 "http://www.w3.org/Graphics/SVG/1.1/DTD/svg11.dtd">
<!-- Generated by graphviz version 2.43.0 (0)
 -->
<!-- Title: architecture Pages: 1 -->
<svg width="1099pt" height="406pt"
 viewBox="0.00 0.00 1099.00 406.00" xmlns="http://www.w3.org/2000/svg" xmlns:xlink="http://www.w3.org/1999/xlink">
<g id="graph0" class="graph" transform="scale(1 1) rotate(0) translate(4 402)">
<title>architecture</title>
<polygon fill="#0b0f14" stroke="transparent" points="-4,4 -4,-402 1095,-402 1095,4 -4,4"/>
<text text-anchor="middle" x="545.5" y="-378" font-family="Helvetica,sans-Serif" font-size="20.00" fill="#c9d1d9">quantum&#45;shield — system architecture</text>
<!-- cli -->
<g id="node1" class="node">
<title>cli</title>
<polygon fill="#161b22" stroke="#ffcb47" stroke-width="2" points="684.5,-368 494.5,-368 494.5,-301 684.5,-301 684.5,-368"/>
<text text-anchor="middle" x="589.5" y="-345.8" font-family="Helvetica,sans-Serif" font-size="14.00" fill="#e6edf3">quantum_shield.py</text>
<text text-anchor="middle" x="589.5" y="-330.8" font-family="Helvetica,sans-Serif" font-size="14.00" fill="#e6edf3">CLI (setup/test/status/</text>
<text text-anchor="middle" x="589.5" y="-315.8" font-family="Helvetica,sans-Serif" font-size="14.00" fill="#e6edf3">benchmark/server)</text>
</g>
<!-- kem -->
<g id="node5" class="node">
<title>kem</title>
<polygon fill="#161b22" stroke="#39ffe0" stroke-width="2" points="373,-241 182,-241 182,-189 373,-189 373,-241"/>
<text text-anchor="middle" x="277.5" y="-218.8" font-family="Helvetica,sans-Serif" font-size="14.00" fill="#e6edf3">src/algorithms/kem.py</text>
<text text-anchor="middle" x="277.5" y="-203.8" font-family="Helvetica,sans-Serif" font-size="14.00" fill="#e6edf3">MLKEM768</text>
</g>
<!-- cli&#45;&gt;kem -->
<g id="edge1" class="edge">
<title>cli&#45;&gt;kem</title>
<path fill="none" stroke="#8f5cff" stroke-width="1.6" d="M511.38,-300.92C501.92,-295.56 492.71,-289.57 484.5,-283 473.88,-274.5 477,-266.26 465.5,-259 457.67,-254.06 421.5,-245.36 382.95,-237.07"/>
<polygon fill="#8f5cff" stroke="#8f5cff" stroke-width="1.6" points="383.62,-233.63 373.11,-234.97 382.16,-240.48 383.62,-233.63"/>
<text text-anchor="middle" x="536.5" y="-268.2" font-family="Helvetica,sans-Serif" font-size="11.00" fill="#c9d1d9">benchmark, server</text>
</g>
<!-- sig -->
<g id="node6" class="node">
<title>sig</title>
<polygon fill="#161b22" stroke="#39ffe0" stroke-width="2" points="689.5,-241 421.5,-241 421.5,-189 689.5,-189 689.5,-241"/>
<text text-anchor="middle" x="555.5" y="-218.8" font-family="Helvetica,sans-Serif" font-size="14.00" fill="#e6edf3">src/algorithms/signature.py</text>
<text text-anchor="middle" x="555.5" y="-203.8" font-family="Helvetica,sans-Serif" font-size="14.00" fill="#e6edf3">Signature / MLDSA65 / Falcon512</text>
</g>
<!-- cli&#45;&gt;sig -->
<g id="edge2" class="edge">
<title>cli&#45;&gt;sig</title>
<path fill="none" stroke="#8f5cff" stroke-width="1.6" d="M596.22,-300.73C597.59,-287.41 597.36,-272.11 592.5,-259 591.34,-255.86 589.83,-252.8 588.09,-249.84"/>
<polygon fill="#8f5cff" stroke="#8f5cff" stroke-width="1.6" points="590.82,-247.63 582.29,-241.35 585.04,-251.58 590.82,-247.63"/>
<text text-anchor="middle" x="628" y="-268.2" font-family="Helvetica,sans-Serif" font-size="11.00" fill="#c9d1d9">benchmark</text>
</g>
<!-- sshkeygen -->
<g id="node2" class="node">
<title>sshkeygen</title>
<polygon fill="#161b22" stroke="#ffcb47" stroke-width="2" points="894.5,-360.5 702.5,-360.5 702.5,-308.5 894.5,-308.5 894.5,-360.5"/>
<text text-anchor="middle" x="798.5" y="-338.3" font-family="Helvetica,sans-Serif" font-size="14.00" fill="#e6edf3">simple_ssh_keygen.py</text>
<text text-anchor="middle" x="798.5" y="-323.3" font-family="Helvetica,sans-Serif" font-size="14.00" fill="#e6edf3">&#45;&#45;encrypt flag</text>
</g>
<!-- sshkeygen&#45;&gt;sig -->
<g id="edge4" class="edge">
<title>sshkeygen&#45;&gt;sig</title>
<path fill="none" stroke="#8f5cff" stroke-width="1.6" d="M755.7,-308.34C729.25,-293.23 694.38,-274.07 662.5,-259 652.35,-254.2 641.51,-249.44 630.78,-244.94"/>
<polygon fill="#8f5cff" stroke="#8f5cff" stroke-width="1.6" points="631.97,-241.64 621.39,-241.04 629.29,-248.11 631.97,-241.64"/>
</g>
<!-- kms -->
<g id="node7" class="node">
<title>kms</title>
<polygon fill="#161b22" stroke="#39ffe0" stroke-width="2" points="874,-241 723,-241 723,-189 874,-189 874,-241"/>
<text text-anchor="middle" x="798.5" y="-218.8" font-family="Helvetica,sans-Serif" font-size="14.00" fill="#e6edf3">src/kms/store.py</text>
<text text-anchor="middle" x="798.5" y="-203.8" font-family="Helvetica,sans-Serif" font-size="14.00" fill="#e6edf3">KeyStore</text>
</g>
<!-- sshkeygen&#45;&gt;kms -->
<g id="edge5" class="edge">
<title>sshkeygen&#45;&gt;kms</title>
<path fill="none" stroke="#8f5cff" stroke-width="1.6" d="M798.5,-308.29C798.5,-291.64 798.5,-269.59 798.5,-251.21"/>
<polygon fill="#8f5cff" stroke="#8f5cff" stroke-width="1.6" points="802,-251.16 798.5,-241.17 795,-251.17 802,-251.16"/>
<text text-anchor="middle" x="823.5" y="-268.2" font-family="Helvetica,sans-Serif" font-size="11.00" fill="#c9d1d9">&#45;&#45;encrypt</text>
</g>
<!-- tlstest -->
<g id="node3" class="node">
<title>tlstest</title>
<polygon fill="#161b22" stroke="#39ffe0" stroke-width="2" points="1058,-353 925,-353 925,-316 1058,-316 1058,-353"/>
<text text-anchor="middle" x="991.5" y="-330.8" font-family="Helvetica,sans-Serif" font-size="14.00" fill="#e6edf3">test_pq_tls.py</text>
</g>
<!-- openssl -->
<g id="node10" class="node">
<title>openssl</title>
<polygon fill="#161b22" stroke="#ff2ec4" stroke-width="2" points="1091,-241 896,-241 892,-237 892,-189 1087,-189 1091,-193 1091,-241"/>
<polyline fill="none" stroke="#ff2ec4" stroke-width="2" points="1087,-237 892,-237 "/>
<polyline fill="none" stroke="#ff2ec4" stroke-width="2" points="1087,-237 1087,-189 "/>
<polyline fill="none" stroke="#ff2ec4" stroke-width="2" points="1087,-237 1091,-241 "/>
<text text-anchor="middle" x="991.5" y="-218.8" font-family="Helvetica,sans-Serif" font-size="14.00" fill="#e6edf3">openssl + oqs&#45;provider</text>
<text text-anchor="middle" x="991.5" y="-203.8" font-family="Helvetica,sans-Serif" font-size="14.00" fill="#e6edf3">(external, CLI&#45;driven)</text>
</g>
<!-- tlstest&#45;&gt;openssl -->
<g id="edge7" class="edge">
<title>tlstest&#45;&gt;openssl</title>
<path fill="none" stroke="#8f5cff" stroke-width="1.6" d="M991.5,-315.91C991.5,-298.85 991.5,-272.5 991.5,-251.14"/>
<polygon fill="#8f5cff" stroke="#8f5cff" stroke-width="1.6" points="995,-251.12 991.5,-241.12 988,-251.12 995,-251.12"/>
</g>
<!-- democlient -->
<g id="node4" class="node">
<title>democlient</title>
<polygon fill="#161b22" stroke="#39ffe0" stroke-width="2" points="249,-353 0,-353 0,-316 249,-316 249,-353"/>
<text text-anchor="middle" x="124.5" y="-330.8" font-family="Helvetica,sans-Serif" font-size="14.00" fill="#e6edf3">examples/kem_demo_client.py</text>
</g>
<!-- democlient&#45;&gt;kem -->
<g id="edge3" class="edge">
<title>democlient&#45;&gt;kem</title>
<path fill="none" stroke="#8f5cff" stroke-width="1.6" stroke-dasharray="5,2" d="M128.11,-315.8C132.4,-299.03 141.13,-274.22 157.5,-259 162.62,-254.24 168.3,-250 174.33,-246.23"/>
<polygon fill="#8f5cff" stroke="#8f5cff" stroke-width="1.6" points="176.46,-249.04 183.38,-241.02 172.97,-242.97 176.46,-249.04"/>
<text text-anchor="middle" x="209.5" y="-274.2" font-family="Helvetica,sans-Serif" font-size="11.00" fill="#c9d1d9">connects to</text>
<text text-anchor="middle" x="209.5" y="-262.2" font-family="Helvetica,sans-Serif" font-size="11.00" fill="#c9d1d9">cli server over TCP</text>
</g>
<!-- liboqs_helper -->
<g id="node8" class="node">
<title>liboqs_helper</title>
<polygon fill="#161b22" stroke="#39ffe0" stroke-width="2" points="537.5,-152 327.5,-152 327.5,-100 537.5,-100 537.5,-152"/>
<text text-anchor="middle" x="432.5" y="-129.8" font-family="Helvetica,sans-Serif" font-size="14.00" fill="#e6edf3">src/algorithms/_liboqs.py</text>
<text text-anchor="middle" x="432.5" y="-114.8" font-family="Helvetica,sans-Serif" font-size="14.00" fill="#e6edf3">shared loader</text>
</g>
<!-- kem&#45;&gt;liboqs_helper -->
<g id="edge8" class="edge">
<title>kem&#45;&gt;liboqs_helper</title>
<path fill="none" stroke="#8f5cff" stroke-width="1.6" d="M322.33,-188.84C340,-178.92 360.45,-167.44 378.9,-157.09"/>
<polygon fill="#8f5cff" stroke="#8f5cff" stroke-width="1.6" points="380.76,-160.05 387.77,-152.11 377.33,-153.95 380.76,-160.05"/>
</g>
<!-- sig&#45;&gt;liboqs_helper -->
<g id="edge9" class="edge">
<title>sig&#45;&gt;liboqs_helper</title>
<path fill="none" stroke="#8f5cff" stroke-width="1.6" d="M519.92,-188.84C506.28,-179.19 490.56,-168.07 476.24,-157.94"/>
<polygon fill="#8f5cff" stroke="#8f5cff" stroke-width="1.6" points="478.18,-155.02 468,-152.11 474.14,-160.74 478.18,-155.02"/>
</g>
<!-- crypto -->
<g id="node11" class="node">
<title>crypto</title>
<polygon fill="#161b22" stroke="#ff2ec4" stroke-width="2" points="888.5,-152 712.5,-152 708.5,-148 708.5,-100 884.5,-100 888.5,-104 888.5,-152"/>
<polyline fill="none" stroke="#ff2ec4" stroke-width="2" points="884.5,-148 708.5,-148 "/>
<polyline fill="none" stroke="#ff2ec4" stroke-width="2" points="884.5,-148 884.5,-100 "/>
<polyline fill="none" stroke="#ff2ec4" stroke-width="2" points="884.5,-148 888.5,-152 "/>
<text text-anchor="middle" x="798.5" y="-129.8" font-family="Helvetica,sans-Serif" font-size="14.00" fill="#e6edf3">cryptography library</text>
<text text-anchor="middle" x="798.5" y="-114.8" font-family="Helvetica,sans-Serif" font-size="14.00" fill="#e6edf3">(AESGCM, Scrypt)</text>
</g>
<!-- kms&#45;&gt;crypto -->
<g id="edge6" class="edge">
<title>kms&#45;&gt;crypto</title>
<path fill="none" stroke="#8f5cff" stroke-width="1.6" d="M798.5,-188.84C798.5,-180.54 798.5,-171.15 798.5,-162.25"/>
<polygon fill="#8f5cff" stroke="#8f5cff" stroke-width="1.6" points="802,-162.11 798.5,-152.11 795,-162.11 802,-162.11"/>
</g>
<!-- liboqs -->
<g id="node9" class="node">
<title>liboqs</title>
<polygon fill="#161b22" stroke="#ff2ec4" stroke-width="2" points="554,-52 315,-52 311,-48 311,0 550,0 554,-4 554,-52"/>
<polyline fill="none" stroke="#ff2ec4" stroke-width="2" points="550,-48 311,-48 "/>
<polyline fill="none" stroke="#ff2ec4" stroke-width="2" points="550,-48 550,0 "/>
<polyline fill="none" stroke="#ff2ec4" stroke-width="2" points="550,-48 554,-52 "/>
<text text-anchor="middle" x="432.5" y="-29.8" font-family="Helvetica,sans-Serif" font-size="14.00" fill="#e6edf3">liboqs.so (external)</text>
<text text-anchor="middle" x="432.5" y="-14.8" font-family="Helvetica,sans-Serif" font-size="14.00" fill="#e6edf3">Open Quantum Safe C library</text>
</g>
<!-- liboqs_helper&#45;&gt;liboqs -->
<g id="edge10" class="edge">
<title>liboqs_helper&#45;&gt;liboqs</title>
<path fill="none" stroke="#8f5cff" stroke-width="1.6" d="M432.5,-99.76C432.5,-88.33 432.5,-74.62 432.5,-62.2"/>
<polygon fill="#8f5cff" stroke="#8f5cff" stroke-width="1.6" points="436,-62.15 432.5,-52.15 429,-62.15 436,-62.15"/>
<text text-anchor="middle" x="467" y="-73.2" font-family="Helvetica,sans-Serif" font-size="11.00" fill="#c9d1d9">ctypes.CDLL</text>
</g>
<!-- future -->
<g id="node12" class="node">
<title>future</title>
<polygon fill="none" stroke="#8a99a8" stroke-width="2" stroke-dasharray="5,2" points="476,-360.5 267,-360.5 267,-308.5 476,-308.5 476,-360.5"/>
<text text-anchor="middle" x="371.5" y="-338.3" font-family="Helvetica,sans-Serif" font-size="14.00" fill="#e6edf3">src/pki/, src/protocols/tls/</text>
<text text-anchor="middle" x="371.5" y="-323.3" font-family="Helvetica,sans-Serif" font-size="14.00" fill="#e6edf3">(planned, empty today)</text>
</g>
<!-- future&#45;&gt;kem -->
<g id="edge11" class="edge">
<title>future&#45;&gt;kem</title>
<path fill="none" stroke="#8f5cff" stroke-width="1.6" stroke-dasharray="5,2" d="M296.41,-308.26C286.11,-301.63 276.89,-293.34 270.5,-283 264.72,-273.65 264.13,-262.14 265.69,-251.31"/>
<polygon fill="#8f5cff" stroke="#8f5cff" stroke-width="1.6" points="269.18,-251.73 267.75,-241.23 262.32,-250.33 269.18,-251.73"/>
<text text-anchor="middle" x="313.5" y="-268.2" font-family="Helvetica,sans-Serif" font-size="11.00" fill="#c9d1d9">would consume</text>
</g>
<!-- future&#45;&gt;sig -->
<g id="edge12" class="edge">
<title>future&#45;&gt;sig</title>
<path fill="none" stroke="#8f5cff" stroke-width="1.6" stroke-dasharray="5,2" d="M367.42,-308.16C366.34,-292.21 367.93,-272.21 379.5,-259 385.24,-252.45 396.72,-246.72 411.21,-241.76"/>
<polygon fill="#8f5cff" stroke="#8f5cff" stroke-width="1.6" points="412.65,-244.98 421.13,-238.62 410.54,-238.3 412.65,-244.98"/>
<text text-anchor="middle" x="422.5" y="-268.2" font-family="Helvetica,sans-Serif" font-size="11.00" fill="#c9d1d9">would consume</text>
</g>
</g>
</svg>
