<?xml version="1.0" encoding="UTF-8" standalone="no"?>
<!DOCTYPE svg PUBLIC "-//W3C//DTD SVG 1.1//EN"
 "http://www.w3.org/Graphics/SVG/1.1/DTD/svg11.dtd">
<!-- Generated by graphviz version 2.43.0 (0)
 -->
<!-- Title: roadmap Pages: 1 -->
<svg width="697pt" height="916pt"
 viewBox="0.00 0.00 697.00 916.00" xmlns="http://www.w3.org/2000/svg" xmlns:xlink="http://www.w3.org/1999/xlink">
<g id="graph0" class="graph" transform="scale(1 1) rotate(0) translate(4 912)">
<title>roadmap</title>
<polygon fill="#0b0f14" stroke="transparent" points="-4,4 -4,-912 693,-912 693,4 -4,4"/>
<text text-anchor="middle" x="344.5" y="-888" font-family="Helvetica,sans-Serif" font-size="20.00" fill="#c9d1d9">roadmap — staged, from PROGRESS.md / FUTURE_DIRECTIONS.md</text>
<!-- done1 -->
<g id="node1" class="node">
<title>done1</title>
<polygon fill="#161b22" stroke="#39ffe0" stroke-width="2" points="452.25,-878 208.25,-878 208.25,-811 452.25,-811 452.25,-878"/>
<text text-anchor="middle" x="330.25" y="-855.8" font-family="Helvetica,sans-Serif" font-size="14.00" fill="#e6edf3">done: kem.py + signature.py,</text>
<text text-anchor="middle" x="330.25" y="-840.8" font-family="Helvetica,sans-Serif" font-size="14.00" fill="#e6edf3">struct&#45;based sizing,</text>
<text text-anchor="middle" x="330.25" y="-825.8" font-family="Helvetica,sans-Serif" font-size="14.00" fill="#e6edf3">27 tests at the time</text>
</g>
<!-- done2 -->
<g id="node2" class="node">
<title>done2</title>
<polygon fill="#161b22" stroke="#39ffe0" stroke-width="2" points="440.25,-775 220.25,-775 220.25,-708 440.25,-708 440.25,-775"/>
<text text-anchor="middle" x="330.25" y="-752.8" font-family="Helvetica,sans-Serif" font-size="14.00" fill="#e6edf3">done: quantum_shield.py</text>
<text text-anchor="middle" x="330.25" y="-737.8" font-family="Helvetica,sans-Serif" font-size="14.00" fill="#e6edf3">benchmark/server call the</text>
<text text-anchor="middle" x="330.25" y="-722.8" font-family="Helvetica,sans-Serif" font-size="14.00" fill="#e6edf3">real library, real TCP demo</text>
</g>
<!-- done1&#45;&gt;done2 -->
<g id="edge1" class="edge">
<title>done1&#45;&gt;done2</title>
<path fill="none" stroke="#8f5cff" stroke-width="1.6" d="M330.25,-810.99C330.25,-802.87 330.25,-794.04 330.25,-785.5"/>
<polygon fill="#8f5cff" stroke="#8f5cff" stroke-width="1.6" points="333.75,-785.3 330.25,-775.3 326.75,-785.3 333.75,-785.3"/>
</g>
<!-- done3 -->
<g id="node3" class="node">
<title>done3</title>
<polygon fill="#161b22" stroke="#39ffe0" stroke-width="2" points="435.25,-672 225.25,-672 225.25,-605 435.25,-605 435.25,-672"/>
<text text-anchor="middle" x="330.25" y="-649.8" font-family="Helvetica,sans-Serif" font-size="14.00" fill="#e6edf3">done: src/kms/store.py &#45;&#45;</text>
<text text-anchor="middle" x="330.25" y="-634.8" font-family="Helvetica,sans-Serif" font-size="14.00" fill="#e6edf3">save/load/list/delete/</text>
<text text-anchor="middle" x="330.25" y="-619.8" font-family="Helvetica,sans-Serif" font-size="14.00" fill="#e6edf3">rotate/revoke/history</text>
</g>
<!-- done2&#45;&gt;done3 -->
<g id="edge2" class="edge">
<title>done2&#45;&gt;done3</title>
<path fill="none" stroke="#8f5cff" stroke-width="1.6" d="M330.25,-707.99C330.25,-699.87 330.25,-691.04 330.25,-682.5"/>
<polygon fill="#8f5cff" stroke="#8f5cff" stroke-width="1.6" points="333.75,-682.3 330.25,-672.3 326.75,-682.3 333.75,-682.3"/>
</g>
<!-- done4 -->
<g id="node4" class="node">
<title>done4</title>
<polygon fill="#161b22" stroke="#39ffe0" stroke-width="2" points="455.25,-569 205.25,-569 205.25,-487 455.25,-487 455.25,-569"/>
<text text-anchor="middle" x="330.25" y="-546.8" font-family="Helvetica,sans-Serif" font-size="14.00" fill="#e6edf3">done: src/pki/certs.py &#45;&#45;</text>
<text text-anchor="middle" x="330.25" y="-531.8" font-family="Helvetica,sans-Serif" font-size="14.00" fill="#e6edf3">verifies real PQ X.509 certs</text>
<text text-anchor="middle" x="330.25" y="-516.8" font-family="Helvetica,sans-Serif" font-size="14.00" fill="#e6edf3">(structure via cryptography,</text>
<text text-anchor="middle" x="330.25" y="-501.8" font-family="Helvetica,sans-Serif" font-size="14.00" fill="#e6edf3">signature via our own binding)</text>
</g>
<!-- done3&#45;&gt;done4 -->
<g id="edge3" class="edge">
<title>done3&#45;&gt;done4</title>
<path fill="none" stroke="#8f5cff" stroke-width="1.6" d="M330.25,-604.95C330.25,-596.87 330.25,-588.03 330.25,-579.32"/>
<polygon fill="#8f5cff" stroke="#8f5cff" stroke-width="1.6" points="333.75,-579.21 330.25,-569.21 326.75,-579.21 333.75,-579.21"/>
</g>
<!-- done5 -->
<g id="node5" class="node">
<title>done5</title>
<polygon fill="#161b22" stroke="#39ffe0" stroke-width="2" points="478.75,-451 181.75,-451 181.75,-354 478.75,-354 478.75,-451"/>
<text text-anchor="middle" x="330.25" y="-428.8" font-family="Helvetica,sans-Serif" font-size="14.00" fill="#e6edf3">done: src/protocols/tls/demo.py &#45;&#45;</text>
<text text-anchor="middle" x="330.25" y="-413.8" font-family="Helvetica,sans-Serif" font-size="14.00" fill="#e6edf3">real TLS 1.3 handshake, PQ KEM</text>
<text text-anchor="middle" x="330.25" y="-398.8" font-family="Helvetica,sans-Serif" font-size="14.00" fill="#e6edf3">group (classical cert for auth &#45;&#45;</text>
<text text-anchor="middle" x="330.25" y="-383.8" font-family="Helvetica,sans-Serif" font-size="14.00" fill="#e6edf3">PQ&#45;signed certs need OpenSSL 3.2+,</text>
<text text-anchor="middle" x="330.25" y="-368.8" font-family="Helvetica,sans-Serif" font-size="14.00" fill="#e6edf3">we have 3.0.2, checked)</text>
</g>
<!-- done4&#45;&gt;done5 -->
<g id="edge4" class="edge">
<title>done4&#45;&gt;done5</title>
<path fill="none" stroke="#8f5cff" stroke-width="1.6" d="M330.25,-486.9C330.25,-478.7 330.25,-469.92 330.25,-461.24"/>
<polygon fill="#8f5cff" stroke="#8f5cff" stroke-width="1.6" points="333.75,-461.14 330.25,-451.14 326.75,-461.14 333.75,-461.14"/>
</g>
<!-- done6 -->
<g id="node6" class="node">
<title>done6</title>
<polygon fill="#161b22" stroke="#39ffe0" stroke-width="2" points="476.25,-318 184.25,-318 184.25,-236 476.25,-236 476.25,-318"/>
<text text-anchor="middle" x="330.25" y="-295.8" font-family="Helvetica,sans-Serif" font-size="14.00" fill="#e6edf3">done: SLH&#45;DSA support &#45;&#45;</text>
<text text-anchor="middle" x="330.25" y="-280.8" font-family="Helvetica,sans-Serif" font-size="14.00" fill="#e6edf3">was NEVER disabled, identifier</text>
<text text-anchor="middle" x="330.25" y="-265.8" font-family="Helvetica,sans-Serif" font-size="14.00" fill="#e6edf3">string was wrong (SLH&#45;DSA&#45;128s</text>
<text text-anchor="middle" x="330.25" y="-250.8" font-family="Helvetica,sans-Serif" font-size="14.00" fill="#e6edf3">vs. real SLH_DSA_PURE_SHA2_128S)</text>
</g>
<!-- done5&#45;&gt;done6 -->
<g id="edge5" class="edge">
<title>done5&#45;&gt;done6</title>
<path fill="none" stroke="#8f5cff" stroke-width="1.6" d="M330.25,-353.75C330.25,-345.36 330.25,-336.59 330.25,-328.13"/>
<polygon fill="#8f5cff" stroke="#8f5cff" stroke-width="1.6" points="333.75,-328.01 330.25,-318.01 326.75,-328.01 333.75,-328.01"/>
</g>
<!-- next1 -->
<g id="node7" class="node">
<title>next1</title>
<polygon fill="#161b22" stroke="#39ffe0" stroke-width="2" points="320.25,-200 70.25,-200 70.25,-118 320.25,-118 320.25,-200"/>
<text text-anchor="middle" x="195.25" y="-177.8" font-family="Helvetica,sans-Serif" font-size="14.00" fill="#e6edf3">next: src/pki/ chain verification</text>
<text text-anchor="middle" x="195.25" y="-162.8" font-family="Helvetica,sans-Serif" font-size="14.00" fill="#e6edf3">&#45;&#45; current code verifies ONE</text>
<text text-anchor="middle" x="195.25" y="-147.8" font-family="Helvetica,sans-Serif" font-size="14.00" fill="#e6edf3">cert&#39;s signature, not a chain,</text>
<text text-anchor="middle" x="195.25" y="-132.8" font-family="Helvetica,sans-Serif" font-size="14.00" fill="#e6edf3">key usage, or revocation</text>
</g>
<!-- done6&#45;&gt;next1 -->
<g id="edge6" class="edge">
<title>done6&#45;&gt;next1</title>
<path fill="none" stroke="#8f5cff" stroke-width="1.6" d="M283.41,-235.75C272.52,-226.4 260.84,-216.36 249.65,-206.75"/>
<polygon fill="#8f5cff" stroke="#8f5cff" stroke-width="1.6" points="251.87,-204.04 242,-200.17 247.31,-209.35 251.87,-204.04"/>
</g>
<!-- next2 -->
<g id="node8" class="node">
<title>next2</title>
<polygon fill="#161b22" stroke="#39ffe0" stroke-width="2" points="591.75,-192.5 338.75,-192.5 338.75,-125.5 591.75,-125.5 591.75,-192.5"/>
<text text-anchor="middle" x="465.25" y="-170.3" font-family="Helvetica,sans-Serif" font-size="14.00" fill="#e6edf3">next: full PQ&#45;authenticated TLS</text>
<text text-anchor="middle" x="465.25" y="-155.3" font-family="Helvetica,sans-Serif" font-size="14.00" fill="#e6edf3">&#45;&#45; needs OpenSSL 3.2+, not</text>
<text text-anchor="middle" x="465.25" y="-140.3" font-family="Helvetica,sans-Serif" font-size="14.00" fill="#e6edf3">just a newer oqs&#45;provider</text>
</g>
<!-- done6&#45;&gt;next2 -->
<g id="edge7" class="edge">
<title>done6&#45;&gt;next2</title>
<path fill="none" stroke="#8f5cff" stroke-width="1.6" d="M377.09,-235.75C390.84,-223.94 405.86,-211.04 419.53,-199.28"/>
<polygon fill="#8f5cff" stroke="#8f5cff" stroke-width="1.6" points="422.11,-201.68 427.41,-192.51 417.55,-196.37 422.11,-201.68"/>
</g>
<!-- hybrid -->
<g id="node9" class="node">
<title>hybrid</title>
<polygon fill="#161b22" stroke="#8a99a8" stroke-width="2" points="618.75,-82 311.75,-82 311.75,0 618.75,0 618.75,-82"/>
<text text-anchor="middle" x="465.25" y="-59.8" font-family="Helvetica,sans-Serif" font-size="14.00" fill="#e6edf3">later: hybrid mode</text>
<text text-anchor="middle" x="465.25" y="-44.8" font-family="Helvetica,sans-Serif" font-size="14.00" fill="#e6edf3">(classical + PQ) wiring &#45;&#45;</text>
<text text-anchor="middle" x="465.25" y="-29.8" font-family="Helvetica,sans-Serif" font-size="14.00" fill="#e6edf3">configured but unimplemented</text>
<text text-anchor="middle" x="465.25" y="-14.8" font-family="Helvetica,sans-Serif" font-size="14.00" fill="#e6edf3">in configs/quantum_shield_config.yaml</text>
</g>
<!-- next2&#45;&gt;hybrid -->
<g id="edge8" class="edge">
<title>next2&#45;&gt;hybrid</title>
<path fill="none" stroke="#8f5cff" stroke-width="1.6" d="M465.25,-125.38C465.25,-115.12 465.25,-103.54 465.25,-92.34"/>
<polygon fill="#8f5cff" stroke="#8f5cff" stroke-width="1.6" points="468.75,-92.22 465.25,-82.22 461.75,-92.22 468.75,-92.22"/>
</g>
</g>
</svg>
