<?xml version="1.0" encoding="UTF-8" standalone="no"?>
<!DOCTYPE svg PUBLIC "-//W3C//DTD SVG 1.1//EN"
 "http://www.w3.org/Graphics/SVG/1.1/DTD/svg11.dtd">
<!-- Generated by graphviz version 2.43.0 (0)
 -->
<!-- Title: trust Pages: 1 -->
<svg width="799pt" height="641pt"
 viewBox="0.00 0.00 799.00 641.00" xmlns="http://www.w3.org/2000/svg" xmlns:xlink="http://www.w3.org/1999/xlink">
<g id="graph0" class="graph" transform="scale(1 1) rotate(0) translate(4 637)">
<title>trust</title>
<polygon fill="#0b0f14" stroke="transparent" points="-4,4 -4,-637 795,-637 795,4 -4,4"/>
<text text-anchor="middle" x="395.5" y="-613" font-family="Helvetica,sans-Serif" font-size="20.00" fill="#c9d1d9">trust boundary — what this project does and doesn&#39;t vouch for</text>
<g id="clust1" class="cluster">
<title>cluster_upstream</title>
<polygon fill="#0b0f14" stroke="#ffcb47" stroke-dasharray="5,2" points="8,-393 8,-595 664,-595 664,-393 8,-393"/>
<text text-anchor="middle" x="336" y="-575" font-family="Helvetica,sans-Serif" font-size="20.00" fill="#ffcb47">upstream, vetted (not audited by this project)</text>
</g>
<g id="clust2" class="cluster">
<title>cluster_thisrepo</title>
<polygon fill="#0b0f14" stroke="#39ffe0" stroke-dasharray="5,2" points="34,-111 34,-351 783,-351 783,-111 34,-111"/>
<text text-anchor="middle" x="408.5" y="-331" font-family="Helvetica,sans-Serif" font-size="20.00" fill="#39ffe0">this repo — bindings and glue, NOT crypto primitives, NOT a DER encoder</text>
</g>
<!-- nist -->
<g id="node1" class="node">
<title>nist</title>
<polygon fill="#161b22" stroke="#ffcb47" stroke-width="2" points="656.5,-549.5 451.5,-549.5 451.5,-497.5 656.5,-497.5 656.5,-549.5"/>
<text text-anchor="middle" x="554" y="-527.3" font-family="Helvetica,sans-Serif" font-size="14.00" fill="#e6edf3">NIST FIPS 203/204</text>
<text text-anchor="middle" x="554" y="-512.3" font-family="Helvetica,sans-Serif" font-size="14.00" fill="#e6edf3">standardized algorithms</text>
</g>
<!-- liboqs -->
<g id="node2" class="node">
<title>liboqs</title>
<polygon fill="#161b22" stroke="#ffcb47" stroke-width="2" points="655.5,-453 420.5,-453 420.5,-401 655.5,-401 655.5,-453"/>
<text text-anchor="middle" x="538" y="-430.8" font-family="Helvetica,sans-Serif" font-size="14.00" fill="#e6edf3">liboqs (Open Quantum Safe)</text>
<text text-anchor="middle" x="538" y="-415.8" font-family="Helvetica,sans-Serif" font-size="14.00" fill="#e6edf3">reference C implementation</text>
</g>
<!-- nist&#45;&gt;liboqs -->
<g id="edge1" class="edge">
<title>nist&#45;&gt;liboqs</title>
<path fill="none" stroke="#8f5cff" stroke-width="1.6" d="M549.71,-497.18C547.94,-486.71 545.86,-474.4 543.94,-463.09"/>
<polygon fill="#8f5cff" stroke="#8f5cff" stroke-width="1.6" points="547.36,-462.34 542.24,-453.07 540.46,-463.51 547.36,-462.34"/>
</g>
<!-- binding -->
<g id="node5" class="node">
<title>binding</title>
<polygon fill="#161b22" stroke="#39ffe0" stroke-width="2" points="470.5,-305.5 323.5,-305.5 323.5,-253.5 470.5,-253.5 470.5,-305.5"/>
<text text-anchor="middle" x="397" y="-283.3" font-family="Helvetica,sans-Serif" font-size="14.00" fill="#e6edf3">src/algorithms/</text>
<text text-anchor="middle" x="397" y="-268.3" font-family="Helvetica,sans-Serif" font-size="14.00" fill="#e6edf3">ctypes bindings</text>
</g>
<!-- liboqs&#45;&gt;binding -->
<g id="edge2" class="edge">
<title>liboqs&#45;&gt;binding</title>
<path fill="none" stroke="#8f5cff" stroke-width="1.6" d="M513.76,-400.99C490.15,-376.63 454.16,-339.48 428.38,-312.88"/>
<polygon fill="#8f5cff" stroke="#8f5cff" stroke-width="1.6" points="430.87,-310.42 421.39,-305.67 425.84,-315.29 430.87,-310.42"/>
</g>
<!-- openssl -->
<g id="node3" class="node">
<title>openssl</title>
<polygon fill="#161b22" stroke="#ffcb47" stroke-width="2" points="224,-542 16,-542 16,-505 224,-505 224,-542"/>
<text text-anchor="middle" x="120" y="-519.8" font-family="Helvetica,sans-Serif" font-size="14.00" fill="#e6edf3">OpenSSL + oqs&#45;provider</text>
</g>
<!-- pki -->
<g id="node7" class="node">
<title>pki</title>
<polygon fill="#161b22" stroke="#39ffe0" stroke-width="2" points="296.5,-186 67.5,-186 67.5,-119 296.5,-119 296.5,-186"/>
<text text-anchor="middle" x="182" y="-163.8" font-family="Helvetica,sans-Serif" font-size="14.00" fill="#e6edf3">src/pki/certs.py</text>
<text text-anchor="middle" x="182" y="-148.8" font-family="Helvetica,sans-Serif" font-size="14.00" fill="#e6edf3">cert verification &#45;&#45;</text>
<text text-anchor="middle" x="182" y="-133.8" font-family="Helvetica,sans-Serif" font-size="14.00" fill="#e6edf3">never builds/encodes a cert</text>
</g>
<!-- openssl&#45;&gt;pki -->
<g id="edge4" class="edge">
<title>openssl&#45;&gt;pki</title>
<path fill="none" stroke="#8f5cff" stroke-width="1.6" d="M114.23,-504.71C105.23,-474.55 89.91,-411.52 100,-359 111.4,-299.68 139.73,-235.7 159.9,-195.16"/>
<polygon fill="#8f5cff" stroke="#8f5cff" stroke-width="1.6" points="163.07,-196.64 164.45,-186.13 156.82,-193.49 163.07,-196.64"/>
<text text-anchor="middle" x="165" y="-374.2" font-family="Helvetica,sans-Serif" font-size="11.00" fill="#c9d1d9">builds/signs certs</text>
<text text-anchor="middle" x="165" y="-362.2" font-family="Helvetica,sans-Serif" font-size="11.00" fill="#c9d1d9">(this repo only verifies)</text>
</g>
<!-- cli -->
<g id="node8" class="node">
<title>cli</title>
<polygon fill="#161b22" stroke="#39ffe0" stroke-width="2" points="507,-178.5 315,-178.5 315,-126.5 507,-126.5 507,-178.5"/>
<text text-anchor="middle" x="411" y="-156.3" font-family="Helvetica,sans-Serif" font-size="14.00" fill="#e6edf3">quantum_shield.py,</text>
<text text-anchor="middle" x="411" y="-141.3" font-family="Helvetica,sans-Serif" font-size="14.00" fill="#e6edf3">simple_ssh_keygen.py</text>
</g>
<!-- openssl&#45;&gt;cli -->
<g id="edge3" class="edge">
<title>openssl&#45;&gt;cli</title>
<path fill="none" stroke="#8f5cff" stroke-width="1.6" d="M137.58,-504.58C161.47,-479.37 204.16,-431.09 230,-383 269.65,-309.21 232,-265.38 289,-204 296.4,-196.03 305.26,-189.27 314.77,-183.56"/>
<polygon fill="#8f5cff" stroke="#8f5cff" stroke-width="1.6" points="316.63,-186.53 323.66,-178.61 313.22,-180.42 316.63,-186.53"/>
</g>
<!-- cryptolib -->
<g id="node4" class="node">
<title>cryptolib</title>
<polygon fill="#161b22" stroke="#ffcb47" stroke-width="2" points="433.5,-557 242.5,-557 242.5,-490 433.5,-490 433.5,-557"/>
<text text-anchor="middle" x="338" y="-534.8" font-family="Helvetica,sans-Serif" font-size="14.00" fill="#e6edf3">cryptography library</text>
<text text-anchor="middle" x="338" y="-519.8" font-family="Helvetica,sans-Serif" font-size="14.00" fill="#e6edf3">(AEAD/KDF primitives,</text>
<text text-anchor="middle" x="338" y="-504.8" font-family="Helvetica,sans-Serif" font-size="14.00" fill="#e6edf3">X.509 DER parser)</text>
</g>
<!-- kms -->
<g id="node6" class="node">
<title>kms</title>
<polygon fill="#161b22" stroke="#39ffe0" stroke-width="2" points="703.5,-313 488.5,-313 488.5,-246 703.5,-246 703.5,-313"/>
<text text-anchor="middle" x="596" y="-290.8" font-family="Helvetica,sans-Serif" font-size="14.00" fill="#e6edf3">src/kms/store.py</text>
<text text-anchor="middle" x="596" y="-275.8" font-family="Helvetica,sans-Serif" font-size="14.00" fill="#e6edf3">encrypt&#45;at&#45;rest, using</text>
<text text-anchor="middle" x="596" y="-260.8" font-family="Helvetica,sans-Serif" font-size="14.00" fill="#e6edf3">cryptography&#39;s primitives</text>
</g>
<!-- cryptolib&#45;&gt;kms -->
<g id="edge5" class="edge">
<title>cryptolib&#45;&gt;kms</title>
<path fill="none" stroke="#8f5cff" stroke-width="1.6" d="M351.14,-489.73C363.64,-461.6 384.58,-421.24 412,-393 413.27,-391.7 480.75,-350.55 533.63,-318.39"/>
<polygon fill="#8f5cff" stroke="#8f5cff" stroke-width="1.6" points="535.58,-321.3 542.31,-313.11 531.94,-315.32 535.58,-321.3"/>
</g>
<!-- cryptolib&#45;&gt;pki -->
<g id="edge6" class="edge">
<title>cryptolib&#45;&gt;pki</title>
<path fill="none" stroke="#8f5cff" stroke-width="1.6" d="M324.16,-489.75C295.82,-422.74 231.26,-270.02 199.84,-195.69"/>
<polygon fill="#8f5cff" stroke="#8f5cff" stroke-width="1.6" points="202.93,-194.02 195.81,-186.17 196.48,-196.75 202.93,-194.02"/>
<text text-anchor="middle" x="325.5" y="-374.2" font-family="Helvetica,sans-Serif" font-size="11.00" fill="#c9d1d9">structure parsing</text>
<text text-anchor="middle" x="325.5" y="-362.2" font-family="Helvetica,sans-Serif" font-size="11.00" fill="#c9d1d9">only</text>
</g>
<!-- binding&#45;&gt;pki -->
<g id="edge8" class="edge">
<title>binding&#45;&gt;pki</title>
<path fill="none" stroke="#8f5cff" stroke-width="1.6" d="M347.7,-253.33C335.43,-245.99 322.72,-237.38 312,-228 301.76,-219.04 303.71,-212.38 293,-204 287.21,-199.47 280.95,-195.24 274.45,-191.31"/>
<polygon fill="#8f5cff" stroke="#8f5cff" stroke-width="1.6" points="275.88,-188.09 265.47,-186.14 272.39,-194.16 275.88,-188.09"/>
<text text-anchor="middle" x="357" y="-219.2" font-family="Helvetica,sans-Serif" font-size="11.00" fill="#c9d1d9">actual signature</text>
<text text-anchor="middle" x="357" y="-207.2" font-family="Helvetica,sans-Serif" font-size="11.00" fill="#c9d1d9">verification</text>
</g>
<!-- binding&#45;&gt;cli -->
<g id="edge7" class="edge">
<title>binding&#45;&gt;cli</title>
<path fill="none" stroke="#8f5cff" stroke-width="1.6" d="M402.03,-253.41C403.5,-245.33 404.98,-236.31 406,-228 407.56,-215.23 408.66,-201.17 409.43,-188.74"/>
<polygon fill="#8f5cff" stroke="#8f5cff" stroke-width="1.6" points="412.92,-188.92 409.99,-178.74 405.93,-188.52 412.92,-188.92"/>
</g>
<!-- notaudited -->
<g id="node9" class="node">
<title>notaudited</title>
<polygon fill="#161b22" stroke="#ff2ec4" stroke-width="2" points="626,-82 376,-82 376,0 632,0 632,-76 626,-82"/>
<polyline fill="none" stroke="#ff2ec4" stroke-width="2" points="626,-82 626,-76 "/>
<polyline fill="none" stroke="#ff2ec4" stroke-width="2" points="632,-76 626,-76 "/>
<text text-anchor="middle" x="504" y="-59.8" font-family="Helvetica,sans-Serif" font-size="14.00" fill="#e6edf3">NOT audited as a whole:</text>
<text text-anchor="middle" x="504" y="-44.8" font-family="Helvetica,sans-Serif" font-size="14.00" fill="#e6edf3">no independent security review</text>
<text text-anchor="middle" x="504" y="-29.8" font-family="Helvetica,sans-Serif" font-size="14.00" fill="#e6edf3">of this repo&#39;s code</text>
<text text-anchor="middle" x="504" y="-14.8" font-family="Helvetica,sans-Serif" font-size="14.00" fill="#e6edf3">has been performed</text>
</g>
<!-- binding&#45;&gt;notaudited -->
<g id="edge10" class="edge">
<title>binding&#45;&gt;notaudited</title>
<path fill="none" stroke="#8f5cff" stroke-width="1.6" d="M447.91,-253.33C473.37,-237.76 501.74,-215.15 516,-186 530.15,-157.07 527.09,-120.95 520.53,-92.12"/>
<polygon fill="#8f5cff" stroke="#8f5cff" stroke-width="1.6" points="523.88,-91.12 518.08,-82.25 517.09,-92.8 523.88,-91.12"/>
</g>
<!-- kms&#45;&gt;notaudited -->
<g id="edge11" class="edge">
<title>kms&#45;&gt;notaudited</title>
<path fill="none" stroke="#8f5cff" stroke-width="1.6" d="M591.44,-245.85C585.4,-208.96 572.62,-147.84 549,-100 547.46,-96.88 545.73,-93.76 543.88,-90.68"/>
<polygon fill="#8f5cff" stroke="#8f5cff" stroke-width="1.6" points="546.73,-88.65 538.37,-82.15 540.85,-92.45 546.73,-88.65"/>
</g>
<!-- pki&#45;&gt;notaudited -->
<g id="edge12" class="edge">
<title>pki&#45;&gt;notaudited</title>
<path fill="none" stroke="#8f5cff" stroke-width="1.6" d="M277.74,-118.94C308.7,-108.41 343.54,-96.57 376.43,-85.38"/>
<polygon fill="#8f5cff" stroke="#8f5cff" stroke-width="1.6" points="377.77,-88.62 386.11,-82.09 375.51,-82 377.77,-88.62"/>
</g>
<!-- cli&#45;&gt;notaudited -->
<g id="edge9" class="edge">
<title>cli&#45;&gt;notaudited</title>
<path fill="none" stroke="#8f5cff" stroke-width="1.6" d="M432.34,-126.38C441.57,-115.5 452.71,-102.39 463.41,-89.79"/>
<polygon fill="#8f5cff" stroke="#8f5cff" stroke-width="1.6" points="466.2,-91.91 470.01,-82.03 460.86,-87.38 466.2,-91.91"/>
</g>
</g>
</svg>
